<?xml version="1.0" standalone="no"?>
<!DOCTYPE svg PUBLIC "-//W3C//DTD SVG 20010904//EN"
 "http://www.w3.org/TR/2001/REC-SVG-20010904/DTD/svg10.dtd">
<svg version="1.0" xmlns="http://www.w3.org/2000/svg"
 width="3264.000000pt" height="2393.000000pt" viewBox="0 0 3264.000000 2393.000000"
 preserveAspectRatio="xMidYMid meet">

<g transform="translate(0.000000,2393.000000) scale(0.100000,-0.100000)"
fill="#000000" stroke="none">
<path d="M10160 23920 c-113 -5 -452 -13 -755 -19 -302 -7 -680 -16 -840 -22
-159 -6 -411 -14 -560 -20 -469 -16 -1153 -47 -1515 -69 -96 -6 -249 -15 -340
-21 -379 -21 -841 -54 -990 -69 -225 -23 -269 -30 -500 -77 -214 -43 -193 -39
-455 -108 -69 -19 -375 -120 -420 -140 -16 -7 -73 -30 -125 -50 -52 -20 -120
-48 -150 -62 -30 -14 -75 -34 -100 -45 -79 -35 -308 -152 -365 -186 -16 -10
-64 -37 -105 -60 -479 -272 -1003 -709 -1411 -1179 -94 -107 -265 -323 -294
-372 -5 -9 -29 -42 -52 -73 -24 -31 -43 -60 -43 -64 0 -3 -20 -35 -45 -70 -25
-34 -45 -65 -45 -68 0 -3 -12 -22 -26 -43 -14 -21 -30 -47 -35 -58 -5 -11 -23
-40 -39 -65 -16 -25 -43 -72 -60 -105 -16 -33 -41 -78 -55 -100 -13 -22 -34
-60 -46 -85 -11 -25 -38 -81 -59 -125 -39 -82 -44 -94 -100 -225 -121 -282
-195 -505 -275 -825 -30 -121 -59 -250 -64 -285 -5 -36 -19 -117 -30 -180 -28
-165 -58 -452 -71 -690 -6 -113 -15 -254 -20 -315 -17 -202 -49 -736 -65
-1080 -8 -187 -20 -414 -25 -505 -15 -244 -38 -955 -50 -1535 -5 -280 -15
-670 -21 -865 -15 -513 11 -2258 46 -3095 8 -192 15 -397 15 -455 0 -58 4
-161 10 -230 5 -69 17 -262 25 -430 39 -757 56 -964 101 -1235 37 -228 51
-298 93 -465 59 -233 188 -628 237 -723 7 -16 14 -35 14 -43 0 -7 8 -28 18
-46 10 -18 28 -58 41 -88 25 -59 218 -448 231 -465 4 -5 22 -37 40 -70 50 -91
59 -105 101 -170 21 -33 46 -73 55 -90 74 -132 345 -485 558 -725 128 -144
420 -421 582 -553 33 -26 88 -71 124 -100 67 -55 164 -125 260 -190 30 -20 66
-45 80 -56 14 -12 30 -21 36 -21 6 0 19 -9 29 -20 10 -11 22 -20 26 -20 4 0
34 -17 66 -39 32 -21 78 -49 102 -62 103 -56 119 -66 166 -95 58 -35 318 -164
331 -164 5 0 35 -13 66 -29 31 -16 110 -51 175 -76 65 -26 132 -53 148 -60 35
-15 302 -103 425 -139 194 -58 558 -135 757 -160 413 -54 260 -50 2201 -54
l1802 -3 0 -1933 c0 -1063 3 -1936 7 -1939 7 -8 34 8 209 122 72 47 138 91
147 96 16 9 230 149 616 400 92 61 234 153 315 205 81 52 222 145 315 205 92
61 199 130 237 154 38 25 119 77 179 117 163 106 563 366 698 453 65 42 204
133 310 202 106 69 278 181 382 249 189 122 369 239 685 445 91 59 184 120
207 136 23 16 43 29 46 29 3 0 75 46 160 103 286 188 430 282 464 302 18 11
108 69 201 129 239 157 511 334 552 361 19 12 84 54 144 94 l110 71 1680 0
c1662 0 1896 4 2146 35 269 33 384 52 595 100 157 35 181 40 240 57 28 8 79
23 115 32 36 10 74 21 85 26 32 13 76 27 140 46 33 9 64 21 69 26 6 4 19 8 31
8 12 0 25 4 31 9 5 5 37 18 70 29 34 12 77 28 95 36 137 58 197 85 289 128 58
27 112 53 121 58 8 4 69 36 134 70 65 34 131 70 146 81 15 10 30 19 33 19 13
0 224 132 356 223 198 138 327 236 510 392 117 98 455 429 519 506 25 32 80
97 121 145 41 49 84 101 95 116 11 15 47 61 80 104 33 42 67 87 75 99 8 12 27
39 42 61 38 54 157 235 192 292 16 26 36 58 45 72 83 129 307 582 381 770 11
30 25 64 30 75 9 19 57 154 85 240 45 138 88 290 120 420 20 83 41 168 47 190
6 22 14 63 18 90 4 28 19 120 33 205 37 222 57 439 72 785 3 72 10 184 15 250
27 340 74 1560 90 2320 23 1072 7 3177 -30 4115 -5 140 -14 360 -19 489 -6
129 -15 354 -21 500 -6 146 -15 322 -20 391 -5 69 -16 256 -25 415 -30 567
-35 643 -59 875 -10 91 -37 277 -51 345 -8 39 -15 82 -15 97 0 15 -4 30 -10
33 -5 3 -10 20 -10 37 0 18 -5 45 -10 62 -9 27 -24 88 -60 236 -24 101 -116
390 -143 452 -8 18 -19 47 -25 63 -22 63 -65 170 -71 180 -4 6 -13 26 -21 45
-13 37 -35 85 -94 211 -20 42 -36 79 -36 83 0 3 -11 23 -23 44 -13 20 -45 78
-72 127 -26 50 -55 101 -65 115 -9 14 -19 30 -21 35 -4 10 -109 184 -139 230
-294 448 -628 826 -1070 1210 -50 43 -102 86 -115 95 -12 8 -49 35 -80 60 -32
25 -83 63 -114 84 -31 21 -74 53 -96 71 -22 17 -60 44 -85 59 -25 15 -54 32
-65 39 -11 7 -36 24 -55 38 -19 15 -53 36 -75 48 -22 12 -69 40 -105 61 -151
90 -457 243 -615 307 -27 12 -77 32 -110 46 -141 60 -433 158 -602 203 -29 8
-79 21 -110 29 -75 20 -418 90 -508 103 -159 25 -432 51 -790 77 -330 24 -468
34 -995 70 -118 8 -314 20 -435 25 -121 5 -303 14 -405 19 -575 30 -1051 49
-1555 61 -231 6 -589 16 -795 22 -438 13 -3617 19 -3920 8z m3715 -3900 c198
-5 547 -14 775 -20 463 -11 1202 -35 1530 -50 224 -11 760 -32 1275 -50 165
-6 361 -15 436 -21 74 -5 177 -9 227 -9 411 0 768 -116 1104 -360 182 -132
403 -411 492 -620 15 -36 31 -72 35 -80 16 -30 73 -224 82 -279 15 -90 28
-215 38 -376 25 -355 52 -738 61 -840 5 -60 15 -222 20 -360 6 -137 18 -367
25 -510 85 -1551 90 -3772 14 -5580 -48 -1154 -67 -1485 -93 -1625 -52 -281
-204 -605 -380 -810 -22 -27 -58 -69 -80 -95 -49 -59 -239 -217 -331 -276 -67
-44 -226 -124 -330 -168 -79 -33 -270 -81 -403 -100 -49 -8 -605 -11 -1743
-11 l-1670 0 -152 -97 c-84 -54 -193 -126 -244 -160 -51 -35 -95 -63 -98 -63
-4 0 -25 -13 -48 -29 -55 -38 -429 -282 -870 -567 -75 -49 -241 -156 -367
-239 -126 -82 -289 -189 -362 -236 -73 -48 -225 -146 -338 -219 -113 -74 -270
-176 -350 -227 -194 -126 -206 -134 -422 -276 -103 -67 -247 -160 -319 -207
-72 -47 -208 -134 -300 -195 -375 -244 -600 -391 -616 -400 -17 -11 -215 -139
-485 -316 -90 -59 -248 -162 -353 -229 -325 -210 -589 -382 -617 -401 -15 -11
-32 -19 -38 -19 -7 0 -10 603 -10 1940 l0 1940 -1670 0 c-1763 0 -1724 -1
-1935 44 -179 38 -398 126 -540 216 -22 14 -47 30 -56 35 -58 36 -103 71 -164
126 -39 35 -81 73 -95 84 -33 27 -135 145 -187 215 -127 175 -201 332 -263
560 -45 165 -53 251 -80 790 -6 118 -15 301 -20 405 -5 105 -14 318 -20 475
-5 157 -14 416 -20 575 -31 879 -36 2721 -9 3630 5 182 13 497 19 700 5 204
16 510 25 680 79 1608 107 2022 145 2215 18 89 74 273 89 295 4 6 15 31 25 58
10 26 21 47 26 47 5 0 11 13 15 29 3 16 13 35 21 42 8 6 14 17 15 23 0 6 18
36 39 66 22 30 51 73 66 95 47 70 256 268 354 337 212 147 433 239 679 284 90
16 315 36 611 53 102 7 235 16 295 21 61 5 207 14 325 20 118 6 294 15 390 21
262 15 867 41 1475 63 656 24 1236 38 1910 46 775 10 2959 4 3440 -10z"/>
<path d="M16850 17660 c-238 -23 -462 -71 -636 -136 -659 -246 -1058 -786
-1156 -1564 -20 -164 -17 -732 5 -885 40 -270 99 -460 217 -700 206 -417 479
-734 1160 -1345 424 -381 528 -509 586 -715 22 -80 31 -356 14 -453 -55 -327
-355 -481 -859 -442 -319 25 -584 105 -966 291 -70 33 -128 59 -129 57 -2 -2
111 -1695 114 -1705 2 -7 153 -83 257 -129 231 -102 504 -178 808 -225 201
-30 657 -38 876 -15 707 77 1178 330 1494 801 177 264 288 582 342 982 25 184
25 820 0 1008 -38 280 -99 489 -207 710 -170 346 -412 624 -970 1115 -574 505
-704 651 -776 875 -35 106 -44 304 -20 409 41 175 160 284 365 337 145 38 414
35 620 -7 178 -35 449 -149 658 -275 47 -28 86 -49 88 -47 4 4 -88 1435 -101
1566 l-6 62 -56 38 c-257 172 -657 319 -1012 373 -156 23 -554 34 -710 19z"/>
<path d="M5470 13675 l0 -3865 955 0 955 0 2 1333 3 1332 748 3 747 2 0 865 0
865 -750 0 -750 0 0 795 0 795 778 2 777 3 3 868 2 867 -1735 0 -1735 0 0
-3865z"/>
<path d="M9640 13675 l0 -3865 965 0 965 0 0 1545 0 1545 460 0 460 0 0 -1545
0 -1545 965 0 965 0 0 3865 0 3865 -965 0 -965 0 0 -1485 0 -1485 -460 0 -460
0 0 1485 0 1485 -965 0 -965 0 0 -3865z"/>
<path d="M26186 17528 c-3 -7 -52 -377 -110 -823 -58 -445 -209 -1597 -335
-2560 -127 -962 -305 -2319 -396 -3015 -91 -696 -168 -1277 -171 -1292 l-6
-28 939 0 938 0 75 853 75 852 475 0 475 0 75 -850 75 -850 939 -3 938 -2 -6
32 c-5 31 -290 2191 -791 6003 -118 902 -218 1652 -221 1668 l-6 27 -1479 0
c-1175 0 -1480 -3 -1483 -12z m1545 -1360 c0 -2 64 -721 142 -1598 l142 -1595
-344 -3 c-189 -1 -345 -1 -346 0 -1 2 46 548 105 1213 59 666 122 1384 141
1598 l33 387 63 0 c35 0 63 -1 64 -2z"/>
<path d="M30720 13675 l0 -3865 960 0 960 0 0 3865 0 3865 -960 0 -960 0 0
-3865z"/>
</g>
</svg>
