<?xml version="1.0" standalone="no"?>
<!DOCTYPE svg PUBLIC "-//W3C//DTD SVG 20010904//EN"
 "http://www.w3.org/TR/2001/REC-SVG-20010904/DTD/svg10.dtd">
<svg version="1.0" xmlns="http://www.w3.org/2000/svg"
 width="3264.000000pt" height="3264.000000pt" viewBox="0 0 3264.000000 3264.000000"
 preserveAspectRatio="xMidYMid meet">

<g transform="translate(0.000000,3264.000000) scale(0.100000,-0.100000)"
fill="#000000" stroke="none">
<path d="M14120 32632 c0 -5 -210 -12 -467 -15 -818 -12 -2185 -47 -2575 -67
-109 -6 -244 -10 -300 -10 -57 0 -168 -4 -248 -10 -80 -5 -271 -15 -425 -21
-154 -6 -363 -15 -465 -20 -102 -5 -279 -14 -395 -19 -233 -10 -404 -20 -1230
-70 -446 -27 -1080 -79 -1113 -91 -13 -5 -52 -9 -86 -9 -35 0 -76 -4 -92 -9
-16 -5 -83 -17 -149 -26 -66 -9 -129 -20 -140 -25 -11 -4 -69 -17 -130 -29
-227 -46 -300 -63 -309 -72 -6 -5 -27 -9 -47 -9 -21 0 -41 -4 -44 -10 -3 -5
-14 -10 -24 -10 -19 0 -109 -25 -146 -41 -11 -4 -36 -11 -55 -14 -42 -8 -152
-42 -197 -61 -17 -8 -38 -14 -46 -14 -9 0 -19 -4 -22 -10 -3 -5 -19 -10 -35
-10 -16 0 -32 -4 -35 -10 -3 -5 -14 -10 -23 -10 -9 0 -30 -7 -46 -15 -15 -8
-36 -15 -46 -15 -10 0 -38 -11 -61 -25 -24 -14 -52 -25 -61 -25 -10 0 -32 -8
-50 -18 -18 -10 -53 -26 -78 -34 -112 -40 -140 -51 -225 -92 -49 -24 -110 -52
-135 -62 -68 -28 -411 -203 -420 -214 -3 -4 -23 -15 -45 -25 -22 -10 -51 -26
-65 -36 -14 -9 -61 -37 -105 -61 -106 -60 -405 -251 -480 -308 -33 -25 -73
-54 -90 -64 -41 -25 -170 -122 -221 -166 -23 -19 -61 -49 -85 -67 -68 -49 -98
-74 -153 -125 -28 -25 -80 -69 -116 -97 -86 -68 -606 -586 -678 -676 -31 -38
-79 -95 -107 -126 -67 -75 -122 -142 -165 -199 -19 -26 -55 -73 -80 -105 -25
-31 -50 -66 -56 -77 -6 -11 -23 -31 -37 -46 -13 -15 -31 -38 -38 -52 -8 -14
-36 -55 -62 -90 -26 -36 -80 -114 -118 -175 -39 -60 -79 -121 -89 -135 -10
-15 -29 -49 -44 -77 -14 -28 -30 -54 -36 -58 -5 -3 -22 -31 -36 -60 -14 -30
-29 -57 -35 -60 -5 -3 -25 -39 -44 -79 -19 -41 -46 -90 -60 -110 -14 -20 -25
-43 -25 -50 0 -8 -6 -18 -13 -24 -11 -9 -30 -48 -102 -202 -9 -19 -24 -48 -35
-65 -10 -16 -19 -36 -19 -43 -1 -8 -17 -46 -36 -86 -19 -40 -35 -77 -35 -82 0
-5 -18 -46 -40 -92 -22 -45 -40 -87 -40 -94 0 -6 -11 -34 -24 -62 -13 -28 -34
-80 -46 -115 -12 -36 -26 -73 -32 -84 -5 -11 -19 -47 -29 -81 -10 -34 -32
-101 -49 -151 -51 -146 -151 -515 -179 -660 -7 -33 -16 -69 -21 -80 -4 -11
-16 -60 -24 -110 -9 -49 -21 -117 -27 -150 -62 -355 -92 -642 -134 -1295 -28
-430 -46 -696 -55 -820 -6 -69 -14 -226 -20 -350 -13 -303 -28 -590 -35 -675
-3 -38 -10 -176 -15 -305 -6 -129 -15 -320 -20 -425 -28 -529 -80 -2499 -80
-3012 0 -189 -4 -293 -10 -293 -14 0 -14 -727 0 -735 7 -4 10 -232 10 -653 0
-356 4 -829 10 -1052 6 -223 15 -589 21 -815 5 -225 14 -520 19 -655 20 -571
31 -826 40 -1000 6 -102 15 -275 21 -385 6 -110 15 -267 20 -350 5 -82 14
-247 19 -365 21 -504 39 -723 85 -1040 8 -52 16 -111 19 -130 3 -19 10 -60 15
-90 6 -30 18 -95 27 -145 9 -49 20 -110 24 -135 5 -25 16 -74 25 -110 9 -36
19 -81 21 -100 3 -19 9 -44 14 -55 5 -11 16 -54 25 -95 9 -41 20 -83 26 -92 5
-10 9 -29 9 -42 0 -14 4 -28 10 -31 5 -3 10 -14 10 -24 0 -18 24 -107 40 -146
5 -11 16 -45 26 -75 17 -55 19 -63 44 -130 7 -19 15 -47 17 -63 3 -15 9 -30
14 -33 5 -3 9 -12 9 -21 0 -17 43 -134 60 -165 6 -10 10 -23 10 -30 0 -7 11
-35 25 -62 14 -27 25 -55 25 -63 0 -7 15 -44 34 -81 18 -37 41 -88 51 -115 25
-65 288 -586 368 -727 35 -64 96 -163 133 -220 38 -58 77 -121 87 -140 18 -33
104 -159 116 -170 3 -3 35 -48 70 -100 35 -52 76 -109 90 -127 14 -17 64 -81
111 -143 47 -61 110 -139 140 -174 30 -34 99 -113 152 -176 110 -130 565 -583
707 -705 51 -44 117 -101 147 -127 30 -26 71 -58 91 -72 21 -13 49 -35 62 -50
14 -14 30 -26 37 -26 7 0 14 -3 16 -8 5 -11 103 -92 112 -92 4 0 38 -25 76
-55 38 -30 79 -60 92 -65 13 -6 41 -24 63 -41 22 -16 67 -48 100 -69 33 -21
72 -48 87 -59 14 -12 30 -21 34 -21 4 0 17 -9 28 -19 12 -10 45 -31 74 -46 29
-15 54 -31 57 -35 3 -5 30 -20 60 -34 29 -14 56 -30 60 -35 3 -6 27 -20 53
-33 26 -12 70 -36 97 -53 78 -47 81 -49 240 -128 193 -97 237 -117 248 -117 6
0 55 -23 109 -50 54 -28 103 -50 109 -50 6 0 29 -9 53 -19 23 -11 60 -26 82
-34 21 -8 66 -25 99 -37 33 -13 65 -26 70 -30 6 -4 26 -13 45 -18 19 -6 80
-26 135 -45 233 -80 576 -181 730 -214 39 -8 99 -21 135 -29 36 -8 124 -26
195 -39 72 -14 141 -27 155 -30 70 -16 375 -57 520 -70 91 -8 172 -18 180 -22
8 -5 1131 -10 2495 -13 l2480 -5 3 -2653 c1 -1458 4 -2652 7 -2652 3 0 18 11
33 25 15 14 30 25 34 25 7 0 105 64 678 440 105 69 198 129 208 135 9 5 31 20
49 32 17 13 34 23 36 23 3 0 29 16 59 35 29 19 137 90 241 158 103 67 278 182
388 255 111 72 204 132 206 132 2 0 19 11 37 25 18 14 35 25 38 25 3 0 93 58
199 128 107 70 237 155 289 187 52 33 164 106 248 162 84 57 154 103 157 103
2 0 24 13 47 29 24 16 131 86 238 156 107 70 214 140 238 156 23 16 45 29 47
29 5 0 123 78 675 440 105 69 198 129 208 135 9 5 31 20 49 32 17 13 34 23 36
23 3 0 29 16 59 35 29 19 137 90 241 158 103 67 278 182 388 254 111 73 204
133 206 133 2 0 19 11 37 25 18 14 35 25 38 25 3 0 93 58 199 128 107 70 237
155 289 187 52 33 164 106 248 162 84 57 154 103 157 103 2 0 24 13 47 29 24
16 131 86 238 156 107 70 214 140 238 156 23 16 45 29 47 29 5 0 123 78 675
440 105 69 198 129 208 135 9 5 31 20 49 32 17 13 34 23 38 23 3 0 18 8 33 19
15 10 83 56 152 102 l125 84 2460 5 c1881 5 2481 9 2550 18 50 7 167 22 260
33 319 38 477 63 675 108 52 11 106 21 120 21 15 0 30 3 34 7 8 8 74 26 151
42 84 18 210 53 220 62 5 5 26 9 46 9 21 0 41 5 44 10 3 6 14 10 23 10 9 0 30
7 46 15 15 8 37 15 47 15 11 0 27 4 37 10 9 5 40 16 67 24 59 17 108 34 152
53 17 7 36 13 42 13 6 0 19 4 29 10 25 14 147 60 158 60 6 0 34 11 62 25 29
14 57 25 62 25 6 0 42 16 80 35 38 19 76 35 83 35 8 0 68 26 133 59 66 32 162
80 214 105 141 69 316 162 370 196 26 16 50 30 54 30 6 0 86 49 96 60 3 3 22
13 43 23 43 20 418 267 457 301 14 12 50 39 80 59 64 43 186 136 291 222 40
33 83 67 95 75 37 26 232 200 378 338 198 187 529 538 621 657 45 59 94 118
145 179 20 22 48 59 63 81 14 22 47 65 72 95 24 30 50 66 56 80 5 14 19 34 29
45 21 22 52 65 103 140 58 86 71 107 96 149 13 22 40 64 60 94 20 30 47 76 61
101 14 26 35 59 46 74 12 14 27 41 34 59 7 18 20 41 28 51 20 23 15 14 185
351 81 161 147 298 147 303 0 10 27 70 60 136 11 22 20 44 20 50 1 7 9 30 20
52 11 22 19 46 20 53 0 7 9 30 20 52 11 21 31 72 44 112 42 123 48 142 61 168
7 14 27 75 45 135 17 61 42 142 55 180 13 39 31 104 40 145 10 41 21 84 26 95
4 11 18 63 30 115 11 52 25 109 29 125 5 17 18 80 30 140 11 61 25 126 31 145
5 19 18 98 29 175 11 77 24 167 29 200 24 154 55 519 71 835 17 351 30 586 41
735 24 351 73 1577 89 2240 5 237 14 594 20 795 6 201 10 580 10 842 0 307 4
479 10 483 12 8 14 1245 2 1245 -5 0 -12 287 -15 638 -6 634 -17 1140 -37
1722 -24 719 -32 946 -40 1120 -5 102 -16 347 -24 545 -9 198 -21 443 -26 545
-6 102 -15 273 -20 380 -5 107 -14 267 -19 355 -10 158 -33 543 -51 845 -5 85
-11 169 -15 185 -3 17 -9 73 -14 125 -13 137 -50 400 -61 436 -6 17 -10 49
-10 72 0 23 -4 50 -9 60 -5 9 -17 62 -26 117 -9 55 -21 109 -25 120 -5 11 -16
58 -26 105 -9 47 -21 89 -25 94 -5 6 -9 27 -9 47 0 21 -4 41 -10 44 -5 3 -10
14 -10 24 0 20 -27 117 -40 141 -4 9 -11 36 -15 60 -4 24 -11 51 -15 60 -5 8
-15 38 -23 65 -14 46 -28 86 -47 140 -4 11 -15 45 -25 75 -9 30 -25 73 -34 95
-20 44 -40 99 -48 130 -3 11 -16 43 -29 71 -13 28 -24 58 -24 65 0 8 -4 19 -8
25 -5 5 -22 41 -37 79 -29 71 -67 156 -135 300 -21 44 -52 109 -69 145 -17 36
-45 90 -63 120 -17 30 -50 91 -73 136 -23 44 -51 94 -62 110 -27 40 -82 130
-111 184 -13 25 -29 52 -36 60 -7 8 -26 37 -42 64 -16 27 -36 59 -44 71 -8 12
-31 46 -51 76 -111 167 -262 371 -403 544 -23 28 -48 59 -56 69 -8 11 -38 45
-65 75 -28 31 -83 94 -122 141 -92 109 -549 565 -630 627 -34 26 -109 90 -167
141 -58 50 -109 92 -113 92 -8 0 -107 81 -111 92 -2 5 -9 8 -16 8 -7 0 -25 14
-42 31 -16 17 -38 35 -49 40 -11 5 -47 30 -80 55 -104 78 -256 181 -316 213
-19 11 -41 27 -48 35 -8 9 -19 16 -26 16 -7 0 -18 7 -26 16 -7 9 -39 29 -70
45 -32 16 -60 33 -64 39 -3 5 -27 20 -53 31 -26 12 -69 36 -97 54 -27 17 -97
55 -155 84 -58 29 -112 59 -121 67 -8 8 -23 14 -32 14 -9 0 -19 4 -22 10 -5 9
-18 15 -112 56 -21 9 -92 43 -158 75 -65 33 -124 59 -130 59 -5 1 -28 9 -50
20 -22 11 -46 19 -53 20 -7 0 -38 13 -70 29 -31 15 -91 40 -132 54 -41 15
-120 43 -175 63 -126 46 -155 56 -285 94 -58 17 -121 37 -140 45 -52 19 -391
101 -615 147 -173 35 -273 52 -440 74 -66 9 -149 20 -185 25 -36 5 -128 13
-205 19 -77 5 -189 14 -250 20 -60 5 -175 14 -255 20 -150 10 -315 24 -505 41
-60 5 -184 14 -275 19 -306 19 -624 40 -765 50 -77 6 -241 15 -365 20 -124 5
-301 14 -395 19 -248 15 -535 29 -830 41 -143 6 -352 15 -465 20 -224 12 -633
24 -1260 40 -223 5 -569 14 -770 20 -201 6 -481 10 -622 10 -160 0 -259 4
-263 10 -8 12 -4355 14 -4355 2z m4100 -5312 c1072 -18 2636 -62 3595 -100
138 -6 390 -15 560 -20 345 -11 715 -26 845 -35 47 -3 218 -10 380 -16 162 -6
376 -15 475 -19 99 -5 347 -16 550 -25 440 -19 626 -41 785 -92 25 -8 68 -20
95 -27 28 -7 65 -21 82 -30 18 -9 38 -16 45 -16 7 -1 31 -9 53 -20 22 -11 48
-19 57 -20 9 0 20 -5 23 -10 3 -6 25 -19 48 -30 23 -11 49 -24 57 -29 8 -4 31
-16 50 -27 145 -76 274 -164 374 -255 28 -25 65 -55 81 -68 36 -27 178 -182
255 -277 148 -184 294 -462 360 -684 12 -41 26 -83 31 -92 5 -10 9 -31 9 -48
0 -17 4 -38 9 -48 25 -46 46 -245 81 -767 6 -88 15 -209 20 -270 6 -60 15
-184 21 -275 6 -91 15 -219 20 -285 5 -66 14 -212 19 -325 5 -113 14 -290 20
-395 35 -677 52 -1058 70 -1570 5 -170 15 -413 20 -540 18 -409 35 -1769 32
-2605 -3 -810 -25 -2231 -42 -2680 -5 -129 -16 -424 -24 -655 -25 -670 -35
-925 -41 -1000 -9 -110 -24 -388 -35 -650 -14 -339 -27 -542 -38 -600 -6 -27
-16 -84 -22 -125 -7 -41 -16 -79 -20 -85 -4 -5 -11 -29 -15 -52 -7 -45 -25
-105 -74 -244 -33 -94 -162 -360 -205 -424 -16 -22 -32 -50 -36 -62 -5 -12
-30 -49 -57 -83 -26 -34 -57 -75 -68 -90 -72 -100 -264 -298 -395 -406 -47
-39 -132 -102 -190 -140 -101 -67 -348 -196 -437 -229 -24 -8 -62 -22 -85 -30
-24 -8 -51 -20 -60 -25 -10 -6 -33 -10 -51 -10 -18 0 -37 -4 -43 -9 -5 -4 -43
-16 -84 -26 -41 -9 -91 -21 -110 -26 -19 -4 -96 -15 -171 -24 -118 -13 -429
-15 -2386 -15 l-2251 0 -53 -36 c-30 -20 -108 -70 -174 -112 -66 -41 -200
-128 -299 -194 -98 -65 -181 -118 -184 -118 -3 0 -20 -11 -38 -25 -18 -14 -35
-25 -37 -25 -2 0 -95 -60 -206 -132 -110 -73 -285 -188 -388 -255 -104 -68
-212 -139 -241 -158 -30 -19 -56 -35 -59 -35 -2 0 -19 -10 -36 -23 -18 -12
-40 -27 -49 -32 -10 -6 -103 -66 -208 -135 -552 -362 -670 -440 -675 -440 -2
0 -24 -13 -47 -29 -24 -16 -131 -86 -238 -156 -107 -70 -214 -140 -238 -156
-23 -16 -45 -29 -47 -29 -3 0 -73 -46 -157 -103 -84 -56 -196 -129 -248 -162
-52 -32 -182 -117 -289 -187 -106 -70 -196 -128 -199 -128 -3 0 -20 -11 -38
-25 -18 -14 -35 -25 -37 -25 -2 0 -95 -60 -206 -133 -110 -72 -285 -187 -388
-254 -104 -68 -212 -139 -241 -158 -30 -19 -56 -35 -59 -35 -2 0 -19 -10 -36
-23 -18 -12 -40 -27 -49 -32 -10 -6 -103 -66 -208 -135 -552 -362 -670 -440
-675 -440 -2 0 -24 -13 -47 -29 -24 -16 -131 -86 -238 -156 -107 -70 -214
-140 -238 -156 -23 -16 -45 -29 -47 -29 -3 0 -73 -46 -157 -103 -84 -56 -196
-129 -248 -162 -52 -32 -182 -117 -289 -187 -106 -70 -196 -128 -199 -128 -3
0 -20 -11 -38 -25 -18 -14 -35 -25 -38 -25 -2 0 -69 -43 -148 -96 -180 -121
-406 -264 -419 -264 -5 0 -10 1018 -11 2642 l-3 2643 -2305 6 c-1561 4 -2328
9 -2375 17 -137 21 -251 43 -320 63 -167 49 -237 72 -274 90 -22 10 -45 19
-51 19 -18 0 -305 147 -319 164 -7 9 -18 16 -23 16 -14 0 -166 104 -230 157
-160 134 -265 238 -381 378 -59 72 -139 189 -204 300 -23 39 -101 201 -113
235 -7 19 -17 39 -22 45 -4 5 -8 20 -8 32 0 13 -7 35 -16 48 -17 26 -30 68
-73 245 -49 197 -61 318 -80 810 -6 135 -12 281 -15 325 -28 417 -43 792 -86
2125 -23 738 -32 1719 -27 2985 6 1242 12 1598 37 2265 6 151 15 433 20 625
10 339 29 805 50 1185 6 102 15 302 20 445 5 143 14 321 20 395 5 74 17 250
25 390 8 140 20 318 25 395 6 77 17 248 25 380 8 132 19 283 25 335 13 112 53
302 80 381 11 30 20 61 20 68 0 6 9 31 20 53 11 23 20 47 20 52 1 6 9 29 20
51 11 22 19 45 20 51 0 12 21 54 50 99 11 17 22 35 24 40 14 33 18 42 29 60 7
11 30 49 51 85 21 36 51 79 66 95 14 17 39 49 55 73 61 92 306 326 452 432
147 106 397 239 528 280 22 7 45 16 50 20 6 4 42 15 80 25 39 9 79 21 90 25
112 44 395 79 885 110 85 5 259 16 385 25 263 18 425 28 820 50 154 8 357 20
450 25 94 6 289 15 435 20 146 5 351 14 455 19 105 6 325 15 490 20 165 6 350
13 410 16 365 16 1852 54 2495 64 743 11 3525 11 4180 1z"/>
<path d="M22635 23890 c-286 -14 -643 -79 -875 -158 -507 -174 -897 -470
-1172 -892 -311 -475 -444 -1055 -424 -1845 14 -589 99 -961 315 -1394 258
-514 614 -929 1423 -1659 547 -494 665 -619 771 -820 85 -162 112 -319 104
-591 -4 -140 -9 -191 -27 -251 -72 -249 -238 -399 -518 -472 -110 -28 -132
-31 -352 -35 -316 -7 -539 20 -802 98 -160 48 -470 175 -706 291 -79 39 -145
68 -147 66 -2 -2 29 -501 70 -1108 67 -995 76 -1106 92 -1118 10 -7 79 -44
153 -81 561 -284 1267 -428 2005 -407 1229 34 2027 467 2450 1330 175 357 263
702 305 1191 13 157 13 789 -1 952 -80 979 -429 1568 -1469 2478 -547 479
-754 674 -872 826 -132 169 -187 271 -231 427 -18 66 -21 104 -22 262 0 167 2
192 24 260 12 41 31 91 42 111 24 47 111 143 163 178 64 44 195 97 282 115
269 55 678 30 970 -59 169 -51 474 -195 677 -318 l107 -66 0 32 c1 77 -133
2064 -140 2083 -9 24 -180 130 -336 207 -310 155 -630 263 -934 316 -263 46
-620 66 -925 51z"/>
<path d="M7710 18700 l0 -5020 1240 0 1240 0 2 1733 3 1732 973 3 972 2 0
1125 0 1125 -972 2 -973 3 -3 1033 -2 1032 1020 0 1020 0 0 1125 0 1125 -2260
0 -2260 0 0 -5020z"/>
<path d="M13140 18700 l0 -5020 1255 0 1255 0 0 2010 0 2010 595 0 595 0 0
-2010 0 -2010 1258 2 1257 3 0 5015 0 5015 -1257 3 -1258 2 0 -1925 0 -1925
-595 0 -595 0 0 1925 0 1925 -1255 0 -1255 0 0 -5020z"/>
</g>
</svg>
